<svg width="34" height="35" viewBox="0 0 34 35" fill="none" xmlns="http://www.w3.org/2000/svg">
<path fill-rule="evenodd" clip-rule="evenodd" d="M33.0813 5.86485C33.5854 7.20232 33.8529 8.61729 33.8719 10.0465C33.9771 11.844 33.9776 12.4319 33.9813 16.982L33.9814 17.0454C33.9814 21.6554 33.9569 22.2309 33.8757 24.0462C33.8474 25.4596 33.5813 26.8522 33.0851 28.1732C32.6474 29.301 31.9796 30.3253 31.1242 31.1808C30.2687 32.0362 29.2444 32.704 28.1165 33.1417C26.7963 33.6372 25.4014 33.9046 23.9915 33.9323C22.1894 34.038 21.5988 34.038 16.9907 34.038C12.3826 34.038 11.8071 34.0135 9.98987 33.9323C8.57719 33.8859 7.1828 33.5987 5.86673 33.0832C4.73842 32.6465 3.7136 31.9792 2.85777 31.124C2.00193 30.2688 1.33389 29.2445 0.896333 28.1165C0.400047 26.7937 0.133978 25.4011 0.105673 23.9896C0 22.1857 0 21.5969 0 16.9888C0 12.3807 0.0245312 11.8052 0.105673 9.98798C0.132324 8.57859 0.399729 7.18412 0.896333 5.86485C1.33316 4.73652 2.0007 3.7118 2.85625 2.85625C3.7118 2.0007 4.73652 1.33316 5.86485 0.896333C7.18453 0.400931 8.57868 0.132948 9.98798 0.103786C11.7901 0 12.3807 0 16.9888 0C21.5969 0 22.1724 0.0226443 23.9878 0.103786C25.3977 0.132735 26.7925 0.400721 28.1128 0.896333C29.2409 1.33346 30.2655 2.00111 31.121 2.85662C31.9765 3.71214 32.6442 4.7367 33.0813 5.86485ZM8.25381 16.9794C8.25381 21.7988 12.158 25.703 16.9775 25.703C19.2912 25.703 21.5101 24.784 23.1461 23.1479C24.7821 21.5119 25.7012 19.293 25.7012 16.9794C25.7012 14.6657 24.7821 12.4468 23.1461 10.8108C21.5101 9.1748 19.2912 8.2557 16.9775 8.2557C12.158 8.2557 8.25381 12.1599 8.25381 16.9794ZM24.0142 7.93302C24.0142 9.05768 24.9218 9.96722 26.0484 9.96722C27.1712 9.96722 28.0807 9.05768 28.0807 7.93302C28.0807 7.66601 28.0281 7.40161 27.9259 7.15492C27.8237 6.90824 27.674 6.68409 27.4852 6.49529C27.2964 6.30648 27.0722 6.15671 26.8255 6.05453C26.5788 5.95235 26.3144 5.89976 26.0474 5.89976C25.7804 5.89976 25.516 5.95235 25.2693 6.05453C25.0227 6.15671 24.7985 6.30648 24.6097 6.49529C24.4209 6.68409 24.2711 6.90824 24.1689 7.15492C24.0668 7.40161 24.0142 7.66601 24.0142 7.93302ZM22.6442 16.9794C22.6442 20.109 20.1071 22.6461 16.9775 22.6461C13.8478 22.6461 11.3108 20.109 11.3108 16.9794C11.3108 13.8497 13.8478 11.3127 16.9775 11.3127C20.1071 11.3127 22.6442 13.8497 22.6442 16.9794Z" fill="black"/>
</svg>
